<svg width="19" height="20" viewBox="0 0 19 20" fill="none" xmlns="http://www.w3.org/2000/svg">
<path d="M3 0.941406H16C16.7956 0.941406 17.5587 1.25748 18.1213 1.82009C18.6839 2.3827 19 3.14576 19 3.94141V16.9414C19 17.7371 18.6839 18.5001 18.1213 19.0627C17.5587 19.6253 16.7956 19.9414 16 19.9414H3C2.20435 19.9414 1.44129 19.6253 0.87868 19.0627C0.316071 18.5001 0 17.7371 0 16.9414V3.94141C0 3.14576 0.316071 2.3827 0.87868 1.82009C1.44129 1.25748 2.20435 0.941406 3 0.941406ZM3 1.94141C2.46957 1.94141 1.96086 2.15212 1.58579 2.52719C1.21071 2.90227 1 3.41097 1 3.94141V6.94141H6V1.94141H3ZM1 16.9414C1 17.4718 1.21071 17.9805 1.58579 18.3556C1.96086 18.7307 2.46957 18.9414 3 18.9414H6V13.9414H1V16.9414ZM6 7.94141H1V12.9414H6V7.94141ZM16 18.9414C16.5304 18.9414 17.0391 18.7307 17.4142 18.3556C17.7893 17.9805 18 17.4718 18 16.9414V13.9414H13V18.9414H16ZM18 7.94141H13V12.9414H18V7.94141ZM18 3.94141C18 3.41097 17.7893 2.90227 17.4142 2.52719C17.0391 2.15212 16.5304 1.94141 16 1.94141H13V6.94141H18V3.94141ZM7 1.94141V6.94141H12V1.94141H7ZM7 18.9414H12V13.9414H7V18.9414ZM12 7.94141H7V12.9414H12V7.94141Z" fill="#9B9B9B"/>
</svg>
